<svg xmlns="http://www.w3.org/2000/svg" width="60.338" height="53.983" viewBox="0 0 60.338 53.983">
  <path id="Icon_awesome-map-marked-alt" data-name="Icon awesome-map-marked-alt" d="M29.669,0a12.98,12.98,0,0,0-12.98,12.98c0,5.8,8.483,16.359,11.734,20.194a1.625,1.625,0,0,0,2.493,0c3.25-3.834,11.734-14.4,11.734-20.194A12.98,12.98,0,0,0,29.669,0Zm0,17.307A4.327,4.327,0,1,1,34,12.98,4.326,4.326,0,0,1,29.669,17.307Zm-27.6,4.94A3.3,3.3,0,0,0,0,25.307V51.095a1.648,1.648,0,0,0,2.26,1.531l14.223-6.474V22.141a31.2,31.2,0,0,1-2.189-4.782Zm27.6,14.806a4.922,4.922,0,0,1-3.761-1.747c-2.025-2.39-4.179-5.112-6.129-7.9V46.151l19.779,6.593V27.4c-1.949,2.791-4.1,5.513-6.129,7.9A4.925,4.925,0,0,1,29.669,37.052ZM57.078,16.6,42.855,23.076V52.745l14.41-5.764a3.3,3.3,0,0,0,2.073-3.061V18.133A1.648,1.648,0,0,0,57.078,16.6Z" transform="translate(0.5 0.5)" fill="none" stroke="#000" stroke-width="1"/>
</svg>
